<?xml version="1.0" standalone="no"?><!DOCTYPE svg PUBLIC "-//W3C//DTD SVG 1.1//EN" "http://www.w3.org/Graphics/SVG/1.1/DTD/svg11.dtd"><svg t="1527854231362" class="icon" style="" viewBox="0 0 1024 1024" version="1.1" xmlns="http://www.w3.org/2000/svg" p-id="2970" xmlns:xlink="http://www.w3.org/1999/xlink" width="128" height="128"><defs><style type="text/css"></style></defs><path d="M512 1024C230.4 1024 0 793.6 0 512S230.4 0 512 0s512 230.4 512 512S793.6 1024 512 1024zM512 85.333333C277.333333 85.333333 85.333333 277.333333 85.333333 512s192 426.666667 426.666667 426.666667 426.666667-192 426.666667-426.666667S746.666667 85.333333 512 85.333333z" p-id="2971"></path><path d="M298.666667 512m-85.333333 0a2 2 0 1 0 170.666667 0 2 2 0 1 0-170.666667 0Z" p-id="2972"></path><path d="M512 512m-85.333333 0a2 2 0 1 0 170.666667 0 2 2 0 1 0-170.666667 0Z" p-id="2973"></path><path d="M725.333333 512m-85.333333 0a2 2 0 1 0 170.666667 0 2 2 0 1 0-170.666667 0Z" p-id="2974"></path></svg>