<?xml version="1.0" standalone="no"?><!DOCTYPE svg PUBLIC "-//W3C//DTD SVG 1.1//EN" "http://www.w3.org/Graphics/SVG/1.1/DTD/svg11.dtd"><svg t="1528115765216" class="icon" style="" viewBox="0 0 1024 1024" version="1.1" xmlns="http://www.w3.org/2000/svg" p-id="2970" xmlns:xlink="http://www.w3.org/1999/xlink" width="128" height="128"><defs><style type="text/css"></style></defs><path d="M512 1024C277.333333 1024 85.333333 832 85.333333 597.333333c0-174.933333 102.4-328.533333 264.533333-392.533333 21.333333-8.533333 46.933333 0 55.466667 21.333333 8.533333 21.333333 0 46.933333-21.333333 55.466667C251.733333 332.8 170.666667 456.533333 170.666667 597.333333c0 187.733333 153.6 341.333333 341.333333 341.333333s341.333333-153.6 341.333333-341.333333c0-140.8-81.066667-264.533333-209.066667-315.733333-21.333333-8.533333-34.133333-34.133333-21.333333-55.466667 8.533333-21.333333 34.133333-34.133333 55.466667-21.333333C836.266667 268.8 938.666667 422.4 938.666667 597.333333 938.666667 832 746.666667 1024 512 1024z" p-id="2971"></path><path d="M512 597.333333c-25.6 0-42.666667-17.066667-42.666667-42.666667L469.333333 42.666667c0-25.6 17.066667-42.666667 42.666667-42.666667s42.666667 17.066667 42.666667 42.666667l0 512C554.666667 580.266667 537.6 597.333333 512 597.333333z" p-id="2972"></path></svg>