<?xml version="1.0" standalone="no"?><!DOCTYPE svg PUBLIC "-//W3C//DTD SVG 1.1//EN" "http://www.w3.org/Graphics/SVG/1.1/DTD/svg11.dtd"><svg t="1528683352261" class="icon" style="" viewBox="0 0 1024 1024" version="1.1" xmlns="http://www.w3.org/2000/svg" p-id="2970" xmlns:xlink="http://www.w3.org/1999/xlink" width="128" height="128"><defs><style type="text/css"></style></defs><path d="M392.533333 554.666667c-29.866667 0-64-8.533333-89.6-25.6C247.466667 490.666667 213.333333 409.6 213.333333 307.2 213.333333 209.066667 294.4 128 392.533333 128s179.2 81.066667 179.2 179.2c0 102.4-34.133333 183.466667-93.866667 221.866667C456.533333 546.133333 422.4 554.666667 392.533333 554.666667zM392.533333 213.333333C341.333333 213.333333 298.666667 256 298.666667 307.2c0 72.533333 21.333333 128 55.466667 149.333333 25.6 17.066667 55.466667 17.066667 81.066667 0 34.133333-21.333333 55.466667-76.8 55.466667-149.333333C486.4 256 443.733333 213.333333 392.533333 213.333333z" p-id="2971"></path><path d="M392.533333 896C311.466667 896 42.666667 887.466667 42.666667 750.933333c0-145.066667 119.466667-183.466667 200.533333-209.066667 8.533333-4.266667 29.866667-8.533333 42.666667-59.733333l85.333333 17.066667c-17.066667 81.066667-59.733333 110.933333-98.133333 123.733333C157.866667 657.066667 128 686.933333 128 750.933333 128 776.533333 251.733333 810.666667 392.533333 810.666667c140.8 0 264.533333-34.133333 264.533333-59.733333 0-64-29.866667-93.866667-140.8-132.266667-34.133333-12.8-81.066667-42.666667-98.133333-123.733333l85.333333-17.066667c8.533333 46.933333 34.133333 55.466667 38.4 59.733333 81.066667 25.6 200.533333 68.266667 200.533333 209.066667C742.4 887.466667 473.6 896 392.533333 896z" p-id="2972"></path><path d="M725.333333 546.133333c-25.6 0-46.933333-8.533333-68.266667-21.333333-42.666667-29.866667-68.266667-85.333333-68.266667-162.133333 0-76.8 59.733333-136.533333 136.533333-136.533333s136.533333 59.733333 136.533333 136.533333c0 76.8-25.6 136.533333-68.266667 166.4C772.266667 537.6 750.933333 546.133333 725.333333 546.133333zM725.333333 307.2c-29.866667 0-51.2 21.333333-51.2 51.2 0 46.933333 12.8 81.066667 29.866667 93.866667 12.8 8.533333 29.866667 8.533333 38.4 0 21.333333-12.8 34.133333-46.933333 34.133333-93.866667C776.533333 332.8 755.2 307.2 725.333333 307.2z" p-id="2973"></path><path d="M576 622.933333 524.8 554.666667c25.6-21.333333 55.466667-34.133333 93.866667-42.666667 4.266667 0 12.8-4.266667 17.066667-29.866667l85.333333 17.066667c-8.533333 46.933333-34.133333 81.066667-76.8 93.866667C618.666667 597.333333 593.066667 610.133333 576 622.933333z" p-id="2974"></path><path d="M725.333333 780.8c0 0-12.8 0-29.866667 0l4.266667-85.333333c12.8 0 21.333333 0 25.6 0 72.533333 0 153.6-17.066667 170.666667-29.866667 0-34.133333-17.066667-51.2-89.6-76.8-38.4-12.8-68.266667-46.933333-76.8-93.866667l85.333333-17.066667c4.266667 25.6 17.066667 29.866667 21.333333 29.866667 55.466667 17.066667 149.333333 46.933333 149.333333 157.866667C981.333333 772.266667 802.133333 780.8 725.333333 780.8L725.333333 780.8z" p-id="2975"></path></svg>